<svg xmlns="http://www.w3.org/2000/svg" xmlns:xlink="http://www.w3.org/1999/xlink" viewBox="0,0,256,256" width="48px" height="48px"><g fill="none" fill-rule="nonzero" stroke="none" stroke-width="1" stroke-linecap="butt" stroke-linejoin="miter" stroke-miterlimit="10" stroke-dasharray="" stroke-dashoffset="0" font-family="none" font-weight="none" font-size="none" text-anchor="none" style="mix-blend-mode: normal"><g transform="scale(5.33333,5.33333)"><path d="M32,15v28h-22c-2.2,0 -4,-1.8 -4,-4v-24z" fill="#faae96"></path><path d="M14,5v34c0,2.2 -1.8,4 -4,4h29c2.2,0 4,-1.8 4,-4v-34z" fill="#93eeff"></path><path d="M20,10h18v4h-18zM20,17h8v2h-8zM30,17h8v2h-8zM20,21h8v2h-8zM30,21h8v2h-8zM20,25h8v2h-8zM30,25h8v2h-8zM20,29h8v2h-8zM30,29h8v2h-8zM20,33h8v2h-8zM30,33h8v2h-8zM20,37h8v2h-8zM30,37h8v2h-8z" fill="#faae96"></path></g></g></svg>